<svg width="165" height="42" viewBox="0 0 165 42" fill="none" xmlns="http://www.w3.org/2000/svg">
<mask id="mask0_138_1042" style="mask-type:luminance" maskUnits="userSpaceOnUse" x="16" y="15" width="13" height="21">
<path d="M16.6267 15.7715H28.5949V35.4623H16.6267V15.7715Z" fill="#FFC635"/>
</mask>
<g mask="url(#mask0_138_1042)">
<path fill-rule="evenodd" clip-rule="evenodd" d="M20.5421 34.3094L28.351 18.9641C28.8902 17.9048 28.5054 16.5895 27.4913 16.0261C26.4775 15.463 25.2184 15.8651 24.6794 16.9243L16.8705 32.2694C16.3315 33.3287 16.7161 34.6443 17.7299 35.2077C18.744 35.7707 20.0031 35.3687 20.5421 34.3094Z" fill="#FFC635"/>
</g>
<mask id="mask1_138_1042" style="mask-type:luminance" maskUnits="userSpaceOnUse" x="5" y="0" width="19" height="42">
<path d="M5.28931 0.290039H23.7573V41.4237H5.28931V0.290039Z" fill="white"/>
</mask>
<g mask="url(#mask1_138_1042)">
<path fill-rule="evenodd" clip-rule="evenodd" d="M22.6622 0.549405C21.6509 -0.0186088 20.39 0.37735 19.8464 1.4343L14.5893 11.651V20.6303L5.53755 38.2222C4.99391 39.2789 5.37288 40.5963 6.38421 41.1646C7.39581 41.7326 8.65636 41.3363 9.20001 40.2797L14.5893 29.806V20.8267L23.5091 3.49143C24.0528 2.43477 23.6735 1.11742 22.6622 0.549405Z" fill="#0A1B30"/>
</g>
<mask id="mask2_138_1042" style="mask-type:luminance" maskUnits="userSpaceOnUse" x="0" y="6" width="13" height="20">
<path d="M0.704102 6.06348H12.6724V25.7542H0.704102V6.06348Z" fill="white"/>
</mask>
<g mask="url(#mask2_138_1042)">
<path fill-rule="evenodd" clip-rule="evenodd" d="M11.5689 6.3181C10.555 5.75501 9.29614 6.15706 8.75693 7.21632L0.947981 22.5614C0.408773 23.6209 0.793565 24.9363 1.80766 25.4994C2.82149 26.0627 4.08038 25.6607 4.61958 24.6014L12.4285 9.25608C12.9677 8.19681 12.583 6.88148 11.5689 6.3181Z" fill="#0A1B30"/>
</g>
<path d="M47.708 26.4521C46.7507 26.8727 45.5526 27.083 44.1138 27.083C39.9246 27.083 37.8301 25.0216 37.8301 20.8989C37.8301 16.9976 39.9606 15.0469 44.2217 15.0469C45.5221 15.0469 46.6842 15.2406 47.708 15.6279V17.6201C46.6842 17.1774 45.5775 16.9561 44.3877 16.9561C41.5378 16.9561 40.1128 18.2703 40.1128 20.8989C40.1128 23.7489 41.4575 25.1738 44.147 25.1738C44.5454 25.1738 44.9992 25.1074 45.5083 24.9746V21.5215H47.708V26.4521ZM51.0034 27H48.7456L53.7842 15.1299H56.1499L61.2964 27H58.9307L57.5776 23.7627H53.6348L54.3901 21.8535H56.7808L54.9131 17.396L51.0034 27ZM62.749 27V15.1299H65.0317L69.0576 24.1362L73.0005 15.1299H75.2002V27H73.1665V18.7324L69.9458 27H68.0698L64.7827 18.7324V27H62.749ZM85.8169 15.1299V17.0225H79.8735V20.0107H85.5347V21.978H79.8486V25.0908H85.9331V27H77.6904V15.1299H85.8169Z" fill="#FFC635"/>
<path d="M99.4966 15.1299V17.0225H93.8853V20.0107H99.2144V21.978H93.8604V27H91.7021V15.1299H99.4966ZM109.491 15.1299V17.0225H103.547V20.0107H109.208V21.978H103.522V25.0908H109.607V27H101.364V15.1299H109.491ZM122.946 15.1299L117.742 27H115.376L110.396 15.1299H113.01L116.688 24.2192L120.356 15.1299H122.946ZM124.191 26.9834V15.1299H129.587C132.011 15.1299 133.223 16.1896 133.223 18.3091C133.223 19.7424 132.279 20.9294 130.392 21.8701L134.152 27H131.38L127.769 21.8286V20.8242C129.872 20.4645 130.923 19.6483 130.923 18.3755C130.923 17.5011 130.431 17.064 129.446 17.064H126.433V26.9834H124.191Z" fill="#0A1B30"/>
</svg>
