<svg id="Layer_1" data-name="Layer 1" xmlns="http://www.w3.org/2000/svg" xmlns:xlink="http://www.w3.org/1999/xlink" viewBox="0 0 164.09 41.13"><defs><style>.cls-1{fill:#fff;}.cls-1,.cls-5,.cls-7{fill-rule:evenodd;}.cls-2,.cls-5{fill:#ffc635;}.cls-3,.cls-7{fill:#0a1b30;}.cls-4{mask:url(#mask);}.cls-6{mask:url(#mask-2-2);}.cls-8{mask:url(#mask-3);}</style><mask id="mask" x="15.92" y="15.48" width="11.97" height="19.69" maskUnits="userSpaceOnUse"><g transform="translate(-0.7 -0.29)"><g id="mask-2"><polygon id="path-1" class="cls-1" points="16.63 15.77 28.59 15.77 28.59 35.46 16.63 35.46 16.63 15.77"/></g></g></mask><mask id="mask-2-2" x="4.59" y="0" width="18.47" height="41.13" maskUnits="userSpaceOnUse"><g transform="translate(-0.7 -0.29)"><g id="mask-4"><polygon id="path-3" class="cls-1" points="5.29 0.29 23.76 0.29 23.76 41.42 5.29 41.42 5.29 0.29"/></g></g></mask><mask id="mask-3" x="0" y="5.77" width="11.97" height="19.69" maskUnits="userSpaceOnUse"><g transform="translate(-0.7 -0.29)"><g id="mask-6"><polygon id="path-5" class="cls-1" points="0.7 6.06 12.67 6.06 12.67 25.75 0.7 25.75 0.7 6.06"/></g></g></mask></defs><g id="_1600_open_settings" data-name="1600_open_settings"><g id="Filter-Games"><g id="Group"><path id="FILTER" class="cls-2" d="M42.22,27V22.62h3.51V20H42.22V18.44H48V15.8H39.14V27Zm11.36,0V15.8H50.41V27Zm11.11,0V24.3h-5V15.8H56.6V27Zm6.08,0V18.5H73.9V15.8H64.53v2.7h3.13V27Zm14.3,0V24.39H79.45V22.47h3.31V19.9H79.45V18.41H85V15.8H76.38V27Zm5.7,0V23.22H92L93.85,27h3.47l-2.24-4.27a3.39,3.39,0,0,0,1.47-1.22,3.6,3.6,0,0,0,.54-2.06,4.08,4.08,0,0,0-.31-1.69,2.84,2.84,0,0,0-.89-1.13A3.65,3.65,0,0,0,94.51,16a7.57,7.57,0,0,0-1.78-.2h-5V27Zm1.83-6.22H90.77V18.33h1.88a1.36,1.36,0,0,1,1,.33,1.24,1.24,0,0,1,.32.87,1.3,1.3,0,0,1-.32.93,1.54,1.54,0,0,1-1.09.32Z" transform="translate(-0.7 -0.29)"/><path id="GAMES" class="cls-3" d="M110.49,27.18a5.07,5.07,0,0,0,3.73-1.28,5,5,0,0,0,1.28-3.68h0V20.86h-4.93v2.32h2a1.82,1.82,0,0,1-.16.53,1.16,1.16,0,0,1-.33.44,1.38,1.38,0,0,1-.55.3,2.81,2.81,0,0,1-.83.1,1.86,1.86,0,0,1-1.62-.73,4.18,4.18,0,0,1-.54-2.42,7.65,7.65,0,0,1,.1-1.23,3.16,3.16,0,0,1,.33-1,1.68,1.68,0,0,1,.6-.64,1.77,1.77,0,0,1,.92-.23,1.6,1.6,0,0,1,1.21.41,3.1,3.1,0,0,1,.68,1.12h0l2.82-1.1a8.87,8.87,0,0,0-.68-1.38,3.59,3.59,0,0,0-.92-1,3.5,3.5,0,0,0-1.28-.58,7.3,7.3,0,0,0-1.81-.2,5.47,5.47,0,0,0-2.25.44,4.83,4.83,0,0,0-1.63,1.21,5.07,5.07,0,0,0-1,1.83,8,8,0,0,0,0,4.75,5.2,5.2,0,0,0,1,1.81,4.35,4.35,0,0,0,1.64,1.13A5.46,5.46,0,0,0,110.49,27.18Zm9.92-.18.6-2h3.36l.61,2h3.36l-4.06-11.2h-3.14L117.08,27Zm3.21-4.43h-1.85l.2-.74c.1-.35.18-.66.26-.93l.2-.72c.06-.21.11-.41.15-.59s.08-.37.11-.56c0,.19.07.38.12.55s.09.37.15.59.12.45.2.72.16.58.25.94h0Zm12.6,4.81,1.48-3.1.32-.68.35-.77c.12-.26.23-.52.33-.77s.21-.49.29-.71c0,.44,0,.91-.05,1.4s0,1,0,1.58h0V27h2.91V15.8H139l-1.37,3c-.35.77-.65,1.44-.9,2s-.41,1-.51,1.35a5.15,5.15,0,0,0-.2-.59c-.09-.24-.2-.5-.32-.8s-.26-.6-.41-.94-.31-.69-.48-1.05h0l-1.37-3h-2.85V27h2.91V24.33c0-.56,0-1.08,0-1.58s0-1,0-1.4c.08.22.18.45.28.71s.22.51.34.77.23.52.35.77l.32.68h0ZM153.47,27V24.39h-5.62V22.47h3.31V19.9h-3.31V18.41h5.5V15.8h-8.57V27Zm6.7.18A7.64,7.64,0,0,0,162,27a4.37,4.37,0,0,0,1.47-.64,3,3,0,0,0,1-1.12,3.79,3.79,0,0,0,.34-1.65,3.52,3.52,0,0,0-.24-1.36,2.63,2.63,0,0,0-.74-1,4.44,4.44,0,0,0-1.26-.72,14.25,14.25,0,0,0-1.82-.56c-.37-.09-.67-.16-.9-.23a3.36,3.36,0,0,1-.56-.21.84.84,0,0,1-.3-.23.44.44,0,0,1-.08-.28.61.61,0,0,1,.22-.49,1.53,1.53,0,0,1,.93-.19,4.73,4.73,0,0,1,1.61.27,6.79,6.79,0,0,1,1.51.78h0l1.5-2.43a7,7,0,0,0-2-1,8.44,8.44,0,0,0-2.5-.34,6.18,6.18,0,0,0-1.83.26,4.26,4.26,0,0,0-1.39.72,3.23,3.23,0,0,0-.89,1.12,3.8,3.8,0,0,0-.06,2.86,2.49,2.49,0,0,0,.74,1,4.23,4.23,0,0,0,1.25.68,16.77,16.77,0,0,0,1.76.51c.37.09.68.17.93.25a3.4,3.4,0,0,1,.58.24.82.82,0,0,1,.31.25.47.47,0,0,1,.09.28.57.57,0,0,1-.32.56,2.71,2.71,0,0,1-1.14.16,4.2,4.2,0,0,1-.83-.09,7,7,0,0,1-.89-.26,6.37,6.37,0,0,1-.85-.36,5.13,5.13,0,0,1-.71-.41h0l-1.5,2.44a8.51,8.51,0,0,0,2.12,1A8.27,8.27,0,0,0,160.17,27.18Z" transform="translate(-0.7 -0.29)"/><g id="Group-3"><g class="cls-4"><path id="Fill-1" class="cls-5" d="M20.54,34.31,28.35,19A2.2,2.2,0,0,0,27.49,16a2,2,0,0,0-2.81.89L16.87,32.27a2.23,2.23,0,0,0,.86,2.94,2,2,0,0,0,2.81-.9" transform="translate(-0.7 -0.29)"/></g></g><g id="Group-6"><g class="cls-6"><path id="Fill-4" class="cls-7" d="M22.66.55a2,2,0,0,0-2.81.88L14.59,11.65v9l-9,17.59a2.21,2.21,0,0,0,.84,2.94,2,2,0,0,0,2.82-.88l5.39-10.47v-9L23.51,3.49A2.23,2.23,0,0,0,22.66.55" transform="translate(-0.7 -0.29)"/></g></g><g id="Group-9"><g class="cls-8"><path id="Fill-7" class="cls-7" d="M11.57,6.32a2,2,0,0,0-2.81.9L1,22.56a2.22,2.22,0,0,0,.86,2.94,2,2,0,0,0,2.81-.9L12.43,9.26a2.23,2.23,0,0,0-.86-2.94" transform="translate(-0.7 -0.29)"/></g></g></g></g></g></svg>