<svg width="131" height="42" viewBox="0 0 131 42" fill="none" xmlns="http://www.w3.org/2000/svg">
<path fill-rule="evenodd" clip-rule="evenodd" d="M19.7876 34.0282L27.5976 18.7182C27.739 18.465 27.8289 18.1863 27.8622 17.8982C27.8955 17.61 27.8715 17.3182 27.7916 17.0393C27.7117 16.7605 27.5774 16.5003 27.3965 16.2735C27.2156 16.0468 26.9917 15.8581 26.7376 15.7182C26.4973 15.5801 26.231 15.4934 25.9554 15.4637C25.6799 15.434 25.4011 15.4618 25.1369 15.5455C24.8727 15.6292 24.6288 15.7669 24.4206 15.9498C24.2124 16.1328 24.0445 16.357 23.9276 16.6082L16.1176 31.9882C15.8583 32.4954 15.803 33.0826 15.9629 33.6293C16.1228 34.1759 16.4859 34.6407 16.9776 34.9282C17.2185 35.066 17.4854 35.1522 17.7614 35.1812C18.0374 35.2103 18.3164 35.1816 18.5807 35.0969C18.845 35.0123 19.0888 34.8735 19.2966 34.6895C19.5044 34.5056 19.6716 34.2804 19.7876 34.0282Z" fill="#FFC635"/>
<path fill-rule="evenodd" clip-rule="evenodd" d="M21.9076 0.268212C21.6679 0.129763 21.4021 0.0425627 21.127 0.0121284C20.8519 -0.0183058 20.5735 0.00868841 20.3094 0.0914031C20.0453 0.174118 19.8012 0.310752 19.5926 0.492662C19.384 0.674571 19.2154 0.897796 19.0976 1.14821L13.8376 11.3682V20.3682L4.83757 37.9582C4.57164 38.4621 4.51055 39.0491 4.66707 39.5969C4.82358 40.1447 5.1856 40.6109 5.67757 40.8982C5.91762 41.0383 6.18425 41.1269 6.46044 41.1582C6.73663 41.1896 7.01632 41.163 7.28166 41.0802C7.547 40.9974 7.79217 40.8602 8.00153 40.6773C8.21088 40.4945 8.37982 40.27 8.49757 40.0182L13.8876 29.5482V20.5482L22.7576 3.20821C23.0177 2.70221 23.0745 2.11594 22.9165 1.56939C22.7585 1.02284 22.3975 0.557354 21.9076 0.268212Z" fill="white"/>
<path fill-rule="evenodd" clip-rule="evenodd" d="M10.8176 6.03816C10.5767 5.90035 10.3098 5.81419 10.0338 5.78515C9.75776 5.75611 9.47874 5.78483 9.21444 5.86948C8.95014 5.95413 8.70635 6.09286 8.49858 6.27685C8.29081 6.46083 8.1236 6.68604 8.00759 6.93816L0.247591 22.2782C-0.0141418 22.7849 -0.0708262 23.3729 0.0892907 23.9202C0.249408 24.4676 0.614043 24.9324 1.10759 25.2182C1.34848 25.356 1.61542 25.4421 1.89142 25.4712C2.16742 25.5002 2.44645 25.4715 2.71074 25.3868C2.97504 25.3022 3.21883 25.1635 3.4266 24.9795C3.63438 24.7955 3.80158 24.5703 3.91759 24.3182L11.6776 8.97816C11.9368 8.47098 11.9922 7.88382 11.8323 7.33714C11.6723 6.79045 11.3093 6.32568 10.8176 6.03816Z" fill="white"/>
<path d="M49.034 22.052V29H46.802L46.568 28.334C45.776 28.898 44.858 29.18 43.814 29.18C42.134 29.18 40.832 28.616 39.908 27.488C38.996 26.36 38.54 24.764 38.54 22.7C38.54 21.392 38.78 20.252 39.26 19.28C39.752 18.296 40.442 17.54 41.33 17.012C42.23 16.484 43.28 16.22 44.48 16.22C45.536 16.22 46.448 16.424 47.216 16.832C47.996 17.228 48.56 17.792 48.908 18.524L47.252 19.946C46.964 19.49 46.586 19.142 46.118 18.902C45.65 18.65 45.116 18.524 44.516 18.524C43.508 18.524 42.74 18.878 42.212 19.586C41.696 20.294 41.438 21.332 41.438 22.7C41.438 25.616 42.368 27.074 44.228 27.074C44.936 27.074 45.584 26.912 46.172 26.588V24.086H43.544V22.052H49.034ZM57.8392 27.128H53.6992L53.1412 29H50.1172L54.5092 16.4H57.0292L61.4212 29H58.3972L57.8392 27.128ZM57.1372 24.824L55.7692 20.288L54.4012 24.824H57.1372ZM75.3217 16.4V29H72.4597V22.34L70.1017 29H68.0497L65.6917 22.34V29H62.8297V16.4H65.8177L69.0757 25.886L72.3337 16.4H75.3217ZM77.6305 16.4H86.2525V18.704H80.5285V21.242H85.6405V23.546H80.5285V26.696H86.2525V29H77.6305V16.4Z" fill="#FFC635"/>
<path d="M88.0192 16.4H96.7312V18.704H90.9172V21.71H96.3532V24.014H90.9172V29H88.0192V16.4ZM98.4958 16.4H107.118V18.704H101.394V21.242H106.506V23.546H101.394V26.696H107.118V29H98.4958V16.4ZM119.396 16.4L114.986 29H112.394L107.984 16.4H111.008L113.69 25.31L116.372 16.4H119.396ZM120.802 16.4H125.428C128.32 16.4 129.766 17.588 129.766 19.964C129.766 20.78 129.598 21.482 129.262 22.07C128.938 22.658 128.464 23.096 127.84 23.384V23.42C128.056 23.576 128.224 23.726 128.344 23.87C128.464 24.014 128.56 24.17 128.632 24.338L130.468 29H127.408L126.004 25.238C125.872 24.902 125.698 24.68 125.482 24.572C125.278 24.464 124.906 24.41 124.366 24.41H123.7V29H120.802V16.4ZM125.104 22.124C125.692 22.124 126.142 21.974 126.454 21.674C126.778 21.362 126.94 20.918 126.94 20.342C126.94 19.25 126.316 18.704 125.068 18.704H123.7V22.124H125.104Z" fill="white"/>
</svg>
