<?xml version="1.0" encoding="UTF-8"?>
<svg width="165px" height="42px" viewBox="0 0 165 42" version="1.1" xmlns="http://www.w3.org/2000/svg" xmlns:xlink="http://www.w3.org/1999/xlink">
    <!-- Generator: Sketch 64 (93537) - https://sketch.com -->
    <title>Group</title>
    <desc>Created with Sketch.</desc>
    <defs>
        <polygon id="path-1" points="0.120595842 0.12710967 12.0887921 0.12710967 12.0887921 19.8179083 0.120595842 19.8179083"></polygon>
        <polygon id="path-3" points="0.149492406 0.286981704 18.6174859 0.286981704 18.6174859 41.4206897 0.149492406 41.4206897"></polygon>
        <polygon id="path-5" points="0 0.267534497 11.9682831 0.267534497 11.9682831 19.9582366 0 19.9582366"></polygon>
    </defs>
    <g id="Responsive" stroke="none" stroke-width="1" fill="none" fill-rule="evenodd">
        <g id="1600_open_settings" transform="translate(-129.000000, -43.000000)">
            <g id="header" transform="translate(129.000000, 38.000000)">
                <g id="Filter-Games" transform="translate(0.000000, 5.000000)">
                    <g id="Group" transform="translate(0.704225, 0.000000)">
                        <g id="Filter-Games" transform="translate(38.431775, 15.624000)" fill-rule="nonzero">
                            <path d="M3.088,11.376 L3.088,6.992 L6.592,6.992 L6.592,4.368 L3.088,4.368 L3.088,2.816 L8.864,2.816 L8.864,0.176 L2.80664381e-13,0.176 L2.80664381e-13,11.376 L3.088,11.376 Z M14.4426667,11.376 L14.4426667,0.176 L11.2746667,0.176 L11.2746667,11.376 L14.4426667,11.376 Z M25.5573333,11.376 L25.5573333,8.672 L20.5973333,8.672 L20.5973333,0.176 L17.4613333,0.176 L17.4613333,11.376 L25.5573333,11.376 Z M31.632,11.376 L31.632,2.88 L34.768,2.88 L34.768,0.176 L25.392,0.176 L25.392,2.88 L28.528,2.88 L28.528,11.376 L31.632,11.376 Z M45.9306667,11.376 L45.9306667,8.768 L40.3146667,8.768 L40.3146667,6.848 L43.6266667,6.848 L43.6266667,4.272 L40.3146667,4.272 L40.3146667,2.784 L45.8186667,2.784 L45.8186667,0.176 L37.2426667,0.176 L37.2426667,11.376 L45.9306667,11.376 Z M51.6373333,11.376 L51.6373333,7.6 L52.8853333,7.6 L54.7093333,11.376 L58.1813333,11.376 L55.9413333,7.104 C56.56,6.82666667 57.0506667,6.42133333 57.4133333,5.888 C57.776,5.35466667 57.9573333,4.66666667 57.9573333,3.824 C57.9573333,3.16266667 57.8533333,2.6 57.6453333,2.136 C57.4373333,1.672 57.1413333,1.296 56.7573333,1.008 C56.3733333,0.72 55.912,0.509333333 55.3733333,0.376 C54.8346667,0.242666667 54.24,0.176 53.5893333,0.176 L53.5893333,0.176 L48.5813333,0.176 L48.5813333,11.376 L51.6373333,11.376 Z M53.4613333,5.152 L51.6373333,5.152 L51.6373333,2.704 L53.5093333,2.704 C54,2.704 54.3493333,2.816 54.5573333,3.04 C54.7653333,3.264 54.8693333,3.552 54.8693333,3.904 C54.8693333,4.30933333 54.7626667,4.61866667 54.5493333,4.832 C54.336,5.04533333 53.9733333,5.152 53.4613333,5.152 L53.4613333,5.152 Z" id="FILTER" fill="#FFC635"></path>
                            <path d="M71.3546667,11.552 C72.9866667,11.552 74.2293333,11.128 75.0826667,10.28 C75.936,9.432 76.3626667,8.20266667 76.3626667,6.592 L76.3626667,6.592 L76.3626667,5.232 L71.4346667,5.232 L71.4346667,7.552 L73.4666667,7.552 C73.4346667,7.744 73.3813333,7.92266667 73.3066667,8.088 C73.232,8.25333333 73.1226667,8.4 72.9786667,8.528 C72.8346667,8.656 72.6506667,8.75466667 72.4266667,8.824 C72.2026667,8.89333333 71.9253333,8.928 71.5946667,8.928 C70.8693333,8.928 70.328,8.68266667 69.9706667,8.192 C69.6133333,7.70133333 69.4346667,6.896 69.4346667,5.776 C69.4346667,5.328 69.4693333,4.91733333 69.5386667,4.544 C69.608,4.17066667 69.7173333,3.848 69.8666667,3.576 C70.016,3.304 70.216,3.09066667 70.4666667,2.936 C70.7173333,2.78133333 71.024,2.704 71.3866667,2.704 C71.92,2.704 72.3226667,2.84 72.5946667,3.112 C72.8666667,3.384 73.0933333,3.76 73.2746667,4.24 L73.2746667,4.24 L76.0906667,3.136 C75.888,2.61333333 75.6613333,2.15466667 75.4106667,1.76 C75.16,1.36533333 74.856,1.03733333 74.4986667,0.776 C74.1413333,0.514666667 73.712,0.32 73.2106667,0.192 C72.7093333,0.064 72.1066667,1.01874065e-12 71.4026667,1.01874065e-12 C70.5493333,1.01874065e-12 69.8,0.146666667 69.1546667,0.44 C68.5093333,0.733333333 67.9653333,1.136 67.5226667,1.648 C67.08,2.16 66.7466667,2.768 66.5226667,3.472 C66.2986667,4.176 66.1866667,4.944 66.1866667,5.776 C66.1866667,6.69333333 66.312,7.50933333 66.5626667,8.224 C66.8133333,8.93866667 67.1653333,9.544 67.6186667,10.04 C68.072,10.536 68.616,10.912 69.2506667,11.168 C69.8853333,11.424 70.5866667,11.552 71.3546667,11.552 Z M81.2693333,11.376 L81.8773333,9.408 L85.2373333,9.408 L85.8453333,11.376 L89.2053333,11.376 L85.1413333,0.176 L82.0053333,0.176 L77.9413333,11.376 L81.2693333,11.376 Z M84.4853333,6.944 L82.6293333,6.944 L82.8373333,6.208 C82.9333333,5.856 83.0186667,5.54666667 83.0933333,5.28 C83.168,5.01333333 83.2346667,4.77333333 83.2933333,4.56 C83.352,4.34666667 83.4026667,4.14933333 83.4453333,3.968 C83.488,3.78666667 83.5253333,3.6 83.5573333,3.408 C83.5893333,3.6 83.6266667,3.784 83.6693333,3.96 C83.712,4.136 83.7626667,4.33066667 83.8213333,4.544 C83.88,4.75733333 83.9466667,4.99733333 84.0213333,5.264 C84.096,5.53066667 84.1813333,5.84533333 84.2773333,6.208 L84.2773333,6.208 L84.4853333,6.944 Z M97.088,11.76 L98.56,8.656 C98.656,8.45333333 98.7626667,8.22666667 98.88,7.976 C98.9973333,7.72533333 99.1146667,7.46933333 99.232,7.208 C99.3493333,6.94666667 99.4613333,6.688 99.568,6.432 C99.6746667,6.176 99.7706667,5.94133333 99.856,5.728 C99.8346667,6.16533333 99.8186667,6.632 99.808,7.128 C99.7973333,7.624 99.792,8.14933333 99.792,8.704 L99.792,8.704 L99.792,11.376 L102.704,11.376 L102.704,0.176 L99.888,0.176 L98.512,3.168 C98.16,3.936 97.8613333,4.61066667 97.616,5.192 C97.3706667,5.77333333 97.2,6.224 97.104,6.544 C97.0613333,6.384 96.9946667,6.18666667 96.904,5.952 C96.8133333,5.71733333 96.7066667,5.45333333 96.584,5.16 C96.4613333,4.86666667 96.3253333,4.552 96.176,4.216 C96.0266667,3.88 95.8666667,3.53066667 95.696,3.168 L95.696,3.168 L94.32,0.176 L91.472,0.176 L91.472,11.376 L94.384,11.376 L94.384,8.704 C94.384,8.14933333 94.3786667,7.624 94.368,7.128 C94.3573333,6.632 94.3413333,6.16533333 94.32,5.728 C94.4053333,5.94133333 94.5013333,6.176 94.608,6.432 C94.7146667,6.688 94.8266667,6.94666667 94.944,7.208 C95.0613333,7.46933333 95.1786667,7.72533333 95.296,7.976 C95.4133333,8.22666667 95.52,8.45333333 95.616,8.656 L95.616,8.656 L97.088,11.76 Z M114.330667,11.376 L114.330667,8.768 L108.714667,8.768 L108.714667,6.848 L112.026667,6.848 L112.026667,4.272 L108.714667,4.272 L108.714667,2.784 L114.218667,2.784 L114.218667,0.176 L105.642667,0.176 L105.642667,11.376 L114.330667,11.376 Z M121.029333,11.552 C121.701333,11.552 122.32,11.4826667 122.885333,11.344 C123.450667,11.2053333 123.938667,10.992 124.349333,10.704 C124.76,10.416 125.08,10.0426667 125.309333,9.584 C125.538667,9.12533333 125.653333,8.576 125.653333,7.936 C125.653333,7.41333333 125.573333,6.96 125.413333,6.576 C125.253333,6.192 125.008,5.86133333 124.677333,5.584 C124.346667,5.30666667 123.925333,5.06666667 123.413333,4.864 C122.901333,4.66133333 122.293333,4.47466667 121.589333,4.304 C121.226667,4.21866667 120.928,4.14133333 120.693333,4.072 C120.458667,4.00266667 120.272,3.93333333 120.133333,3.864 C119.994667,3.79466667 119.896,3.72 119.837333,3.64 C119.778667,3.56 119.749333,3.46666667 119.749333,3.36 C119.749333,3.15733333 119.824,2.992 119.973333,2.864 C120.122667,2.736 120.432,2.672 120.901333,2.672 C121.477333,2.672 122.016,2.76266667 122.517333,2.944 C123.018667,3.12533333 123.52,3.38666667 124.021333,3.728 L124.021333,3.728 L125.525333,1.296 C124.928,0.88 124.274667,0.56 123.565333,0.336 C122.856,0.112 122.021333,1.01874065e-12 121.061333,1.01874065e-12 C120.389333,1.01874065e-12 119.781333,0.0853333333 119.237333,0.256 C118.693333,0.426666667 118.229333,0.666666667 117.845333,0.976 C117.461333,1.28533333 117.165333,1.65866667 116.957333,2.096 C116.749333,2.53333333 116.645333,3.01333333 116.645333,3.536 C116.645333,4.10133333 116.728,4.576 116.893333,4.96 C117.058667,5.344 117.306667,5.672 117.637333,5.944 C117.968,6.216 118.384,6.44266667 118.885333,6.624 C119.386667,6.80533333 119.973333,6.976 120.645333,7.136 C121.018667,7.22133333 121.328,7.304 121.573333,7.384 C121.818667,7.464 122.013333,7.544 122.157333,7.624 C122.301333,7.704 122.402667,7.78666667 122.461333,7.872 C122.52,7.95733333 122.549333,8.05333333 122.549333,8.16 C122.549333,8.42666667 122.445333,8.61333333 122.237333,8.72 C122.029333,8.82666667 121.648,8.88 121.093333,8.88 C120.837333,8.88 120.56,8.848 120.261333,8.784 C119.962667,8.72 119.666667,8.63466667 119.373333,8.528 C119.08,8.42133333 118.797333,8.30133333 118.525333,8.168 C118.253333,8.03466667 118.016,7.89866667 117.813333,7.76 L117.813333,7.76 L116.309333,10.192 C116.896,10.576 117.602667,10.8986667 118.429333,11.16 C119.256,11.4213333 120.122667,11.552 121.029333,11.552 Z" id="GAMES" fill="#FFFFFF"></path>
                        </g>
                        <g id="Group-10">
                            <g>
                                <g id="Group-3" transform="translate(15.801980, 15.644276)">
                                    <mask id="mask-2" fill="white">
                                        <use xlink:href="#path-1"></use>
                                    </mask>
                                    <g id="Clip-2"></g>
                                    <path d="M4.03596436,18.6650607 L11.8449149,3.31970897 C12.3841228,2.26044 11.9993307,0.945115862 10.9852317,0.381736552 C9.9714099,-0.181353103 8.71224158,0.220688276 8.17331089,1.27995724 L0.364360396,16.6250193 C-0.174570297,17.6842883 0.209944554,18.9999021 1.22376634,19.5632814 C2.23786535,20.126371 3.49703366,19.7243297 4.03596436,18.6650607" id="Fill-1" fill="#FFC635" mask="url(#mask-2)"></path>
                                </g>
                                <g id="Group-6" transform="translate(4.435644, 0.002897)">
                                    <mask id="mask-4" fill="white">
                                        <use xlink:href="#path-3"></use>
                                    </mask>
                                    <g id="Clip-5"></g>
                                    <path d="M17.5223723,0.546347586 C16.5110455,-0.0216662069 15.2502139,0.374292414 14.7065703,1.43124414 L9.44950099,11.6479614 L9.44950099,20.6272717 L0.397738614,38.219189 C-0.14590495,39.275851 0.233065347,40.5932028 1.24439208,41.1615062 C2.25599604,41.72952 3.5165505,41.3332717 4.06019406,40.2766097 L9.44950099,29.8029683 L9.44950099,20.8236579 L18.369303,3.48837517 C18.9129465,2.4317131 18.533699,1.11436138 17.5223723,0.546347586" id="Fill-4" fill="#FFFFFF" mask="url(#mask-4)"></path>
                                </g>
                                <g id="Group-9" transform="translate(0.000000, 5.796000)">
                                    <mask id="mask-6" fill="white">
                                        <use xlink:href="#path-5"></use>
                                    </mask>
                                    <g id="Clip-8"></g>
                                    <path d="M10.8647208,0.522161379 C9.85089901,-0.0409282759 8.59200792,0.361113103 8.0528,1.42038207 L0.243849505,16.7654441 C-0.295358416,17.8250028 0.0894336634,19.1403269 1.10353267,19.7034166 C2.11735446,20.2667959 3.37624554,19.8647545 3.91545347,18.8054855 L11.724404,3.46013379 C12.2636119,2.40086483 11.8788198,1.08554069 10.8647208,0.522161379" id="Fill-7" fill="#FFFFFF" mask="url(#mask-6)"></path>
                                </g>
                            </g>
                        </g>
                    </g>
                </g>
            </g>
        </g>
    </g>
</svg>